<svg width="712" height="245" viewBox="0 0 712 245" fill="none" xmlns="http://www.w3.org/2000/svg">
<g clip-path="url(#clip0_5_37)">
<g clip-path="url(#clip1_5_37)">
<path fill-rule="evenodd" clip-rule="evenodd" d="M282.292 97.091H306.806C312.918 97.091 317.872 92.134 317.872 86.022C317.872 79.91 312.915 74.953 306.806 74.953H282.292C267.711 74.926 255.912 63.126 255.884 48.548C255.911 33.967 267.711 22.167 282.292 22.14H331.32C345.898 22.167 357.698 33.967 357.725 48.548C357.725 54.66 362.679 59.617 368.795 59.617C374.906 59.617 379.863 54.66 379.863 48.547C379.858 21.734 358.133 0.0120016 331.32 0.00400162H282.292C255.478 0.0130016 233.754 21.734 233.749 48.551C233.757 75.364 255.479 97.086 282.292 97.091ZM428.721 21.801H404.207C398.092 21.801 393.137 26.756 393.137 32.871C393.137 38.983 398.092 43.94 404.207 43.94H428.721C443.299 43.967 455.099 55.767 455.126 70.348C455.099 84.926 443.299 96.728 428.721 96.756H379.693C365.112 96.729 353.312 84.929 353.285 70.348C353.285 64.236 348.328 59.282 342.219 59.282C336.106 59.282 331.152 64.236 331.152 70.348C331.155 97.162 352.879 118.883 379.692 118.891H428.721C455.534 118.886 477.256 97.161 477.261 70.348C477.256 43.528 455.534 21.808 428.721 21.802" fill="url(#paint0_linear_5_37)"/>
</g>
<path d="M2.41815 238.89V148.708H37.9977C44.8377 148.708 50.6648 150.015 55.4792 152.627C60.2936 155.211 63.9631 158.807 66.4877 163.416C69.0417 167.995 70.3187 173.279 70.3187 179.268C70.3187 185.256 69.0271 190.541 66.4437 195.12C63.8604 199.7 60.1175 203.266 55.215 205.82C50.3419 208.374 44.4413 209.651 37.5133 209.651H14.8358V194.372H34.4309C38.1004 194.372 41.1241 193.74 43.502 192.478C45.9092 191.186 47.6999 189.41 48.8741 187.15C50.0777 184.86 50.6795 182.233 50.6795 179.268C50.6795 176.274 50.0777 173.661 48.8741 171.43C47.6999 169.169 45.9092 167.423 43.502 166.19C41.0948 164.927 38.0417 164.296 34.3429 164.296H21.4849V238.89H2.41815ZM82.351 238.89V171.254H100.537V183.055H101.242C102.475 178.857 104.544 175.686 107.45 173.543C110.357 171.371 113.703 170.285 117.49 170.285C118.43 170.285 119.442 170.344 120.529 170.461C121.615 170.578 122.569 170.74 123.391 170.945V187.59C122.51 187.326 121.292 187.091 119.736 186.886C118.18 186.68 116.756 186.577 115.465 186.577C112.705 186.577 110.239 187.179 108.067 188.383C105.924 189.557 104.221 191.201 102.959 193.315C101.726 195.428 101.11 197.865 101.11 200.624V238.89H82.351ZM160.501 240.211C153.661 240.211 147.745 238.758 142.755 235.852C137.794 232.916 133.963 228.836 131.262 223.61C128.561 218.355 127.211 212.264 127.211 205.336C127.211 198.349 128.561 192.243 131.262 187.018C133.963 181.763 137.794 177.683 142.755 174.776C147.745 171.841 153.661 170.373 160.501 170.373C167.34 170.373 173.241 171.841 178.202 174.776C183.193 177.683 187.038 181.763 189.739 187.018C192.44 192.243 193.79 198.349 193.79 205.336C193.79 212.264 192.44 218.355 189.739 223.61C187.038 228.836 183.193 232.916 178.202 235.852C173.241 238.758 167.34 240.211 160.501 240.211ZM160.589 225.68C163.7 225.68 166.298 224.799 168.383 223.038C170.467 221.247 172.037 218.81 173.094 215.728C174.18 212.646 174.724 209.138 174.724 205.204C174.724 201.27 174.18 197.762 173.094 194.68C172.037 191.597 170.467 189.161 168.383 187.37C166.298 185.579 163.7 184.684 160.589 184.684C157.448 184.684 154.805 185.579 152.662 187.37C150.549 189.161 148.949 191.597 147.863 194.68C146.806 197.762 146.278 201.27 146.278 205.204C146.278 209.138 146.806 212.646 147.863 215.728C148.949 218.81 150.549 221.247 152.662 223.038C154.805 224.799 157.448 225.68 160.589 225.68ZM230.911 239.991C225.774 239.991 221.121 238.67 216.952 236.028C212.813 233.356 209.525 229.437 207.089 224.271C204.681 219.075 203.478 212.704 203.478 205.16C203.478 197.41 204.725 190.966 207.221 185.829C209.716 180.662 213.033 176.802 217.172 174.248C221.341 171.665 225.906 170.373 230.867 170.373C234.654 170.373 237.81 171.019 240.334 172.31C242.888 173.573 244.943 175.158 246.499 177.066C248.084 178.945 249.288 180.794 250.11 182.614H250.682V148.708H269.397V238.89H250.903V228.058H250.11C249.229 229.936 247.982 231.801 246.367 233.65C244.782 235.47 242.712 236.982 240.158 238.185C237.634 239.389 234.551 239.991 230.911 239.991ZM236.856 225.063C239.879 225.063 242.433 224.241 244.518 222.597C246.631 220.924 248.246 218.59 249.361 215.596C250.506 212.602 251.079 209.094 251.079 205.072C251.079 201.05 250.521 197.557 249.405 194.592C248.29 191.627 246.675 189.337 244.562 187.722C242.448 186.108 239.879 185.301 236.856 185.301C233.773 185.301 231.175 186.137 229.062 187.81C226.948 189.484 225.348 191.803 224.262 194.768C223.176 197.733 222.633 201.167 222.633 205.072C222.633 209.006 223.176 212.484 224.262 215.508C225.377 218.502 226.977 220.851 229.062 222.553C231.175 224.227 233.773 225.063 236.856 225.063ZM328.193 210.092V171.254H346.952V238.89H328.942V226.604H328.237C326.711 230.568 324.172 233.753 320.619 236.16C317.097 238.567 312.796 239.771 307.718 239.771C303.197 239.771 299.219 238.743 295.784 236.688C292.35 234.633 289.664 231.712 287.726 227.926C285.818 224.139 284.849 219.603 284.82 214.319V171.254H303.578V210.972C303.608 214.965 304.679 218.121 306.793 220.44C308.906 222.759 311.739 223.918 315.291 223.918C317.552 223.918 319.665 223.405 321.632 222.377C323.599 221.32 325.184 219.765 326.388 217.71C327.621 215.655 328.223 213.115 328.193 210.092ZM392.516 240.211C385.588 240.211 379.629 238.743 374.638 235.808C369.677 232.843 365.861 228.733 363.189 223.478C360.547 218.223 359.226 212.176 359.226 205.336C359.226 198.408 360.562 192.331 363.233 187.106C365.934 181.851 369.765 177.756 374.726 174.82C379.688 171.855 385.588 170.373 392.428 170.373C398.329 170.373 403.495 171.444 407.928 173.587C412.361 175.73 415.869 178.739 418.452 182.614C421.036 186.489 422.459 191.04 422.724 196.265H405.022C404.523 192.889 403.202 190.174 401.059 188.119C398.945 186.034 396.171 184.992 392.736 184.992C389.83 184.992 387.291 185.785 385.118 187.37C382.975 188.926 381.302 191.201 380.099 194.195C378.895 197.19 378.293 200.815 378.293 205.072C378.293 209.387 378.88 213.057 380.055 216.08C381.258 219.104 382.946 221.408 385.118 222.994C387.291 224.579 389.83 225.372 392.736 225.372C394.879 225.372 396.802 224.931 398.505 224.051C400.237 223.17 401.661 221.893 402.776 220.22C403.921 218.517 404.67 216.477 405.022 214.099H422.724C422.43 219.265 421.021 223.816 418.496 227.749C416.001 231.654 412.552 234.707 408.148 236.908C403.745 239.11 398.534 240.211 392.516 240.211ZM470.71 171.254V185.345H429.978V171.254H470.71ZM439.225 155.049H457.984V218.106C457.984 219.838 458.248 221.188 458.776 222.157C459.305 223.096 460.039 223.757 460.978 224.139C461.947 224.52 463.062 224.711 464.325 224.711C465.205 224.711 466.086 224.638 466.967 224.491C467.847 224.315 468.523 224.183 468.992 224.095L471.943 238.053C471.003 238.347 469.682 238.685 467.98 239.066C466.277 239.477 464.207 239.727 461.771 239.815C457.25 239.991 453.287 239.389 449.882 238.009C446.506 236.63 443.878 234.487 441.999 231.58C440.121 228.674 439.196 225.005 439.225 220.572V155.049ZM538.357 190.541L521.184 191.597C520.89 190.13 520.259 188.809 519.29 187.634C518.322 186.431 517.045 185.477 515.459 184.772C513.903 184.038 512.039 183.671 509.867 183.671C506.961 183.671 504.51 184.288 502.513 185.521C500.517 186.724 499.519 188.339 499.519 190.364C499.519 191.979 500.165 193.344 501.456 194.46C502.748 195.575 504.965 196.47 508.106 197.146L520.347 199.612C526.923 200.962 531.825 203.134 535.055 206.129C538.284 209.123 539.898 213.057 539.898 217.93C539.898 222.363 538.592 226.252 535.979 229.599C533.396 232.945 529.844 235.558 525.323 237.437C520.832 239.286 515.65 240.211 509.779 240.211C500.825 240.211 493.692 238.347 488.378 234.619C483.094 230.861 479.997 225.753 479.087 219.295L497.537 218.326C498.095 221.056 499.446 223.14 501.589 224.579C503.732 225.988 506.476 226.693 509.823 226.693C513.111 226.693 515.753 226.061 517.749 224.799C519.775 223.507 520.802 221.849 520.832 219.823C520.802 218.121 520.083 216.726 518.674 215.64C517.265 214.524 515.092 213.673 512.157 213.086L500.444 210.752C493.839 209.431 488.921 207.141 485.692 203.883C482.492 200.624 480.893 196.47 480.893 191.421C480.893 187.077 482.067 183.334 484.415 180.193C486.793 177.051 490.125 174.63 494.411 172.927C498.726 171.224 503.776 170.373 509.559 170.373C518.101 170.373 524.824 172.178 529.726 175.789C534.658 179.4 537.535 184.317 538.357 190.541Z" fill="#101725"/>
<path d="M584.031 238.89H552.063V148.708H584.296C593.367 148.708 601.175 150.514 607.722 154.124C614.268 157.706 619.303 162.858 622.825 169.58C626.378 176.303 628.154 184.346 628.154 193.711C628.154 203.105 626.378 211.178 622.825 217.93C619.303 224.682 614.239 229.863 607.634 233.474C601.058 237.085 593.191 238.89 584.031 238.89ZM571.129 222.553H583.239C588.875 222.553 593.616 221.555 597.462 219.559C601.337 217.533 604.243 214.407 606.181 210.18C608.147 205.923 609.131 200.434 609.131 193.711C609.131 187.047 608.147 181.602 606.181 177.374C604.243 173.147 601.352 170.035 597.506 168.039C593.66 166.043 588.919 165.045 583.283 165.045H571.129V222.553ZM642.278 238.89V148.708H678.385C685.02 148.708 690.554 149.692 694.986 151.658C699.419 153.625 702.751 156.355 704.982 159.849C707.213 163.313 708.329 167.305 708.329 171.826C708.329 175.349 707.624 178.446 706.215 181.117C704.806 183.759 702.868 185.932 700.403 187.634C697.966 189.308 695.177 190.497 692.036 191.201V192.082C695.471 192.229 698.685 193.197 701.68 194.988C704.703 196.779 707.154 199.289 709.033 202.518C710.912 205.718 711.851 209.534 711.851 213.967C711.851 218.752 710.662 223.023 708.285 226.781C705.936 230.509 702.457 233.459 697.849 235.631C693.24 237.804 687.559 238.89 680.807 238.89H642.278ZM661.344 223.302H676.888C682.202 223.302 686.077 222.289 688.513 220.264C690.95 218.209 692.168 215.479 692.168 212.073C692.168 209.578 691.566 207.376 690.363 205.468C689.159 203.56 687.442 202.063 685.211 200.977C683.009 199.89 680.382 199.347 677.329 199.347H661.344V223.302ZM661.344 186.445H675.479C678.092 186.445 680.411 185.99 682.437 185.08C684.492 184.141 686.106 182.82 687.28 181.117C688.484 179.415 689.086 177.374 689.086 174.997C689.086 171.738 687.926 169.111 685.607 167.114C683.317 165.118 680.059 164.12 675.832 164.12H661.344V186.445Z" fill="#9CA3AF"/>
</g>
<defs>
<linearGradient id="paint0_linear_5_37" x1="145.505" y1="117.48" x2="565.505" y2="117.48" gradientUnits="userSpaceOnUse">
<stop stop-color="#8360C3"/>
<stop offset="1" stop-color="#2EBF91"/>
</linearGradient>
<clipPath id="clip0_5_37">
<rect width="712" height="245" fill="white"/>
</clipPath>
<clipPath id="clip1_5_37">
<rect width="243.51" height="118.89" fill="white" transform="translate(233.745)"/>
</clipPath>
</defs>
</svg>
